<svg width="14" height="14" viewBox="0 0 14 14" fill="none" xmlns="http://www.w3.org/2000/svg">
<path d="M6.99998 0.333313C3.32665 0.333313 0.333313 3.32665 0.333313 6.99998C0.333313 10.6733 3.32665 13.6666 6.99998 13.6666C10.6733 13.6666 13.6666 10.6733 13.6666 6.99998C13.6666 3.32665 10.6733 0.333313 6.99998 0.333313ZM9.89998 9.37998C9.80665 9.53998 9.63998 9.62665 9.46665 9.62665C9.37998 9.62665 9.29331 9.60665 9.21331 9.55331L7.14665 8.31998C6.63331 8.01331 6.25331 7.33998 6.25331 6.74665V4.01331C6.25331 3.73998 6.47998 3.51331 6.75331 3.51331C7.02665 3.51331 7.25331 3.73998 7.25331 4.01331V6.74665C7.25331 6.98665 7.45331 7.33998 7.65998 7.45998L9.72665 8.69331C9.96665 8.83331 10.0466 9.13998 9.89998 9.37998Z" fill="white"/>
</svg>
